<svg width="200" viewBox="0 0 1046 530" fill="none" xmlns="http://www.w3.org/2000/svg">
    <path d="M354.684 337.297C354.683 341.828 354.701 346.112 354.677 350.396C354.655 354.336 352.861 356.156 348.95 356.158C327.284 356.17 305.618 356.121 283.953 356.214C280.927 356.227 278.162 354.398 278.235 350.595C278.251 349.772 278.236 348.947 278.236 348.124C278.236 283.95 278.236 219.776 278.236 155.603C278.236 154.623 278.236 153.643 278.236 152.373C277.216 153.018 276.984 153.902 276.586 154.623C259.466 185.675 242.36 216.735 225.249 247.791C221.478 254.637 217.747 261.506 213.897 268.307C210.641 274.06 206.829 279.414 202.024 284.015C195.53 290.232 187.795 293.347 178.82 293.383C172.807 293.407 166.79 293.28 160.781 293.435C157.842 293.51 156.032 292.346 154.638 289.837C147.083 276.245 139.442 262.701 131.831 249.141C114.03 217.429 96.2282 185.717 78.4254 154.006C78.0703 153.374 77.6964 152.752 76.9652 152.133C76.9332 152.97 76.8732 153.807 76.8731 154.644C76.8685 200.859 76.869 247.074 76.869 293.288C76.869 312.153 76.8748 331.018 76.8533 349.883C76.8521 350.936 76.7998 352.048 76.4646 353.028C75.8261 354.895 74.4041 355.952 72.4055 356.133C71.833 356.184 71.2532 356.163 70.6768 356.163C49.3405 356.164 28.0042 356.164 6.66789 356.163C6.0914 356.163 5.51124 356.189 4.93907 356.135C2.85455 355.94 1.21368 354.619 0.721161 352.562C0.476163 351.539 0.452729 350.445 0.452623 349.383C0.441544 235.288 0.442147 121.192 0.443037 7.09638C0.443044 6.43754 0.408433 5.77405 0.47169 5.12064C0.749626 2.24959 2.57233 0.484487 5.45422 0.280142C6.02812 0.239451 6.60711 0.268587 7.18374 0.268579C26.2134 0.268345 45.2433 0.31535 64.2725 0.223695C67.5471 0.207924 69.5653 1.38006 71.1567 4.28677C106.478 68.8008 141.87 133.276 177.251 197.757C177.674 198.528 178.133 199.278 178.74 200.319C179.204 199.533 179.537 199.013 179.828 198.47C214.532 133.82 249.247 69.1751 283.885 4.48959C285.489 1.49462 287.483 0.200555 290.892 0.218943C309.921 0.32164 328.951 0.26818 347.98 0.269039C348.639 0.26907 349.304 0.226908 349.956 0.293567C352.656 0.569323 354.476 2.44445 354.664 5.1446C354.721 5.96466 354.683 6.79153 354.683 7.61528C354.684 117.427 354.684 227.239 354.684 337.297Z" fill="black"/>
    <path d="M858.872 246.818C831.094 282.379 803.309 317.935 775.558 353.517C774.115 355.367 772.448 356.192 770.088 356.188C739.528 356.144 708.968 356.153 678.408 356.172C676.783 356.173 675.29 355.96 674.082 354.775C672.221 352.95 672.066 350.371 673.805 348.055C675.88 345.289 678.047 342.592 680.176 339.867C711.001 300.415 741.826 260.963 772.649 221.509C773.145 220.874 773.606 220.212 774.382 219.158C773.082 219.158 772.146 219.158 771.211 219.158C658.279 219.158 545.347 219.158 432.416 219.157C430.768 219.157 429.12 219.176 427.473 219.153C423.922 219.103 422.016 217.21 421.999 213.615C421.967 206.943 421.989 200.271 421.989 193.599C421.989 176.548 421.989 159.497 421.99 142.446C421.99 141.705 421.942 140.958 422.015 140.223C422.267 137.661 424.127 135.839 426.697 135.643C427.599 135.575 428.509 135.619 429.415 135.619C542.841 135.619 656.266 135.619 769.692 135.619C770.658 135.619 771.624 135.619 772.963 135.619C772.316 134.7 771.892 134.039 771.41 133.423C739.172 92.1498 706.929 50.8805 674.687 9.61012C674.281 9.09116 673.848 8.58778 673.497 8.03353C671.461 4.82113 673.191 0.944133 676.949 0.341741C677.754 0.212631 678.591 0.266612 679.414 0.266528C709.315 0.263451 739.216 0.293259 769.117 0.218793C772.116 0.211326 774.18 1.17701 776.039 3.56441C803.26 38.5167 830.554 73.412 857.832 108.32C858.238 108.839 858.656 109.348 859.258 110.087C866.325 119.142 873.199 127.976 880.084 136.801C889.854 149.323 899.581 161.881 909.448 174.328C911.797 177.291 911.296 179.841 909.357 182.296C900.686 193.277 892.108 204.33 883.491 215.353C875.289 225.844 867.079 236.33 858.872 246.818Z" fill="black"/>
    <path opacity="0.6" d="M859.047 246.815C867.079 236.328 875.288 225.842 883.491 215.35C892.108 204.328 900.686 193.274 909.357 182.294C911.296 179.838 911.797 177.289 909.448 174.325C899.581 161.879 889.854 149.321 880.084 136.798C873.199 127.974 866.325 119.14 859.416 110.148C879.708 83.9598 900.03 57.9339 920.354 31.9092C927.754 22.4335 935.202 12.9942 942.528 3.46189C944.237 1.23804 946.171 0.212892 949.009 0.218775C979.153 0.281294 1009.3 0.266367 1039.44 0.241138C1041.89 0.239087 1044.1 0.602357 1045.3 3.02148C1046.49 5.41749 1045.56 7.40207 1044.02 9.3574C1033.8 22.3755 1023.63 35.4342 1013.44 48.477C989.61 78.9753 965.778 109.472 941.947 139.97C932.668 151.844 923.391 163.72 914.116 175.597C913.463 176.433 912.835 177.288 912.125 178.227C912.655 178.95 913.117 179.613 913.614 180.249C957.005 235.802 1000.4 291.352 1043.79 346.903C1044.25 347.487 1044.75 348.05 1045.12 348.684C1047.04 351.937 1045.01 355.839 1041.24 356.13C1040.5 356.188 1039.76 356.152 1039.02 356.152C1009.12 356.153 979.221 356.121 949.324 356.202C946.326 356.211 944.272 355.304 942.401 352.899C919.246 323.127 896.003 293.425 872.783 263.705C868.727 258.514 864.677 253.318 860.605 248.139C860.214 247.642 859.686 247.252 859.047 246.815Z" fill="black"/>
    <path d="M421.99 18.2634C421.99 13.9797 421.975 9.94301 421.995 5.90655C422.014 2.00722 423.868 0.126769 427.711 0.056188C428.205 0.0471071 428.699 0.0547701 429.193 0.0547701C488.259 0.0547626 547.325 0.0856109 606.39 2.01314e-05C611.469 -0.00734116 613.553 2.00351 613.527 7.01557C613.404 30.2457 613.472 53.4769 613.472 76.7078C613.472 77.0373 613.453 77.3681 613.474 77.6961C613.744 81.7308 610.938 83.6495 607.629 83.6456C547.657 83.5745 487.685 83.5958 427.713 83.5885C423.805 83.5881 421.998 81.7648 421.995 77.8234C421.983 58.0524 421.99 38.2815 421.99 18.2634Z" fill="black"/>
    <path d="M540.064 272.593C562.389 272.593 584.467 272.593 606.545 272.594C607.286 272.594 608.033 272.548 608.768 272.62C611.393 272.877 613.136 274.611 613.42 277.235C613.491 277.887 613.47 278.551 613.47 279.21C613.472 302.688 613.473 326.166 613.464 349.644C613.463 350.546 613.448 351.466 613.277 352.346C612.883 354.365 611.241 355.845 609.201 356.081C608.469 356.166 607.721 356.131 606.98 356.131C547.501 356.133 488.023 356.133 428.545 356.132C427.968 356.132 427.39 356.157 426.815 356.124C424.086 355.969 422.235 354.169 422.005 351.438C421.957 350.865 421.989 350.285 421.989 349.709C421.989 326.148 421.989 302.587 421.989 279.027C421.989 278.532 421.964 278.036 421.997 277.544C422.182 274.719 424.043 272.826 426.875 272.608C427.612 272.551 428.357 272.594 429.098 272.594C466.005 272.593 502.911 272.593 540.064 272.593Z" fill="black"/>
    <path d="M0.552656 502.717C0.552656 482.211 0.552603 461.952 0.552844 441.694C0.552852 441.035 0.519522 440.374 0.564724 439.718C0.667398 438.228 1.22175 437.53 2.64884 437.514C7.75402 437.458 12.8602 437.495 17.966 437.496C19.1428 437.496 19.6819 438.309 20.1707 439.202C21.751 442.087 23.3357 444.97 24.9218 447.852C31.8608 460.462 38.8 473.071 45.7434 485.677C46.0905 486.308 46.4775 486.916 46.9801 487.76C47.5016 486.893 47.9405 486.226 48.3179 485.526C56.4752 470.399 64.6595 455.287 72.7351 440.117C73.7582 438.195 74.8909 437.345 77.1229 437.436C81.3981 437.612 85.6856 437.471 89.9678 437.494C92.3263 437.506 92.8885 438.071 92.9563 440.366C92.9781 441.107 92.9599 441.849 92.9599 442.59C92.96 470.26 92.96 497.931 92.9598 525.601C92.9598 526.26 92.9942 526.921 92.9507 527.577C92.8341 529.335 92.2679 529.96 90.5263 529.973C85.0914 530.011 79.6557 530.015 74.2208 529.97C72.4888 529.955 71.9637 529.327 71.8625 527.519C71.8303 526.944 71.8555 526.366 71.8555 525.79C71.8554 511.543 71.8554 497.296 71.8554 483.049C71.8554 482.267 71.8554 481.484 71.8554 480.702C71.712 480.669 71.5686 480.636 71.4251 480.602C71.0377 481.274 70.64 481.94 70.2645 482.619C66.0026 490.318 61.7668 498.032 57.4667 505.71C56.5468 507.352 55.4907 508.939 54.3319 510.423C52.4404 512.844 49.8309 513.93 46.7871 514C45.7171 514.025 44.6373 513.919 43.5774 514.026C41.6858 514.216 40.5751 513.42 39.6566 511.762C34.4345 502.337 29.1163 492.966 23.8276 483.578C23.2282 482.514 22.6091 481.461 21.7077 479.898C21.6123 481.016 21.5196 481.597 21.5193 482.179C21.5112 496.756 21.513 511.332 21.5126 525.909C21.5126 526.567 21.552 527.23 21.498 527.884C21.3731 529.4 20.886 529.923 19.3255 529.968C17.0215 530.034 14.7142 529.987 12.4083 529.988C9.44365 529.988 6.47884 530.004 3.5143 529.982C0.917796 529.964 0.561782 529.602 0.557551 526.929C0.544902 518.941 0.552784 510.953 0.552656 502.717Z" fill="black"/>
    <path d="M399.183 451.152C405.636 440.774 415.159 436.001 426.886 435.425C433.212 435.114 439.576 435.145 445.906 435.423C455.31 435.837 463.673 438.977 469.864 446.403C474.214 451.62 477.171 457.539 477.303 464.548C477.359 467.562 476.995 467.932 473.908 467.937C468.966 467.944 464.024 467.954 459.083 467.932C456.811 467.922 456.296 467.427 456.112 465.277C455.71 460.569 451.848 456.186 447.074 455.151C445.718 454.858 444.304 454.734 442.914 454.715C438.796 454.659 434.672 454.834 430.561 454.666C421.97 454.316 417.632 459.926 416.162 466.201C415.79 467.791 415.606 469.46 415.594 471.094C415.536 478.753 415.541 486.414 415.581 494.073C415.596 497.057 416.098 499.971 417.344 502.717C419.644 507.787 423.502 510.489 429.144 510.483C434.251 510.478 439.358 510.542 444.463 510.459C450.029 510.37 455.767 505.596 456.728 500.389C456.771 500.156 456.733 499.907 456.733 499.434C456.015 499.387 455.312 499.302 454.609 499.3C448.597 499.29 442.584 499.295 436.572 499.293C435.913 499.293 435.25 499.327 434.596 499.269C432.998 499.126 432.386 498.562 432.368 496.917C432.318 492.141 432.317 487.363 432.369 482.586C432.387 480.848 433.037 480.25 434.802 480.213C437.272 480.161 439.744 480.199 442.215 480.199C453.087 480.199 463.959 480.194 474.831 480.203C477.708 480.205 478.117 480.613 478.126 483.481C478.142 488.34 478.237 493.202 478.11 498.059C477.792 510.163 472.185 519.218 461.895 525.41C457.449 528.086 452.526 529.564 447.363 529.704C440.04 529.904 432.682 530.135 425.384 529.655C413.809 528.893 404.673 523.592 398.744 513.39C395.88 508.463 394.412 503.028 394.307 497.372C394.123 487.575 394.123 477.77 394.3 467.973C394.408 462.052 396.065 456.453 399.183 451.152Z" fill="black"/>
    <path d="M815.882 529.94C809.787 529.94 803.939 529.924 798.092 529.947C795.574 529.957 793.166 529.509 790.958 528.294C787.198 526.225 784.843 523.093 784.211 518.807C783.984 517.267 783.911 515.692 783.91 514.133C783.892 490.001 783.898 465.868 783.898 441.736C783.898 441.16 783.869 440.581 783.905 440.007C784.026 438.099 784.597 437.531 786.459 437.442C786.952 437.418 787.447 437.437 787.941 437.437C809.026 437.437 830.111 437.437 851.195 437.437C851.772 437.437 852.349 437.418 852.925 437.443C854.849 437.529 855.439 438.054 855.456 439.973C855.497 444.667 855.469 449.362 855.469 454.057C855.469 454.139 855.473 454.222 855.466 454.304C855.335 455.875 854.748 456.481 853.17 456.61C852.597 456.657 852.018 456.621 851.441 456.621C837.11 456.621 822.779 456.621 808.448 456.621C807.549 456.621 806.649 456.621 805.587 456.621C805.587 462.085 805.587 467.462 805.587 473.088C806.385 473.088 807.182 473.088 807.979 473.088C821.157 473.088 834.335 473.088 847.513 473.088C848.172 473.088 848.835 473.043 849.489 473.104C850.937 473.24 851.616 473.821 851.634 475.289C851.695 480.23 851.696 485.172 851.633 490.113C851.614 491.596 850.95 492.14 849.479 492.262C848.907 492.31 848.327 492.272 847.75 492.272C834.572 492.272 821.394 492.272 808.216 492.272C807.4 492.272 806.585 492.272 805.597 492.272C805.597 498.41 805.597 504.452 805.597 510.815C806.415 510.815 807.284 510.816 808.152 510.816C822.401 510.815 836.65 510.815 850.899 510.815C851.558 510.815 852.218 510.785 852.875 510.823C854.947 510.944 855.444 511.433 855.46 513.575C855.492 518.023 855.484 522.471 855.464 526.918C855.453 529.562 855.091 529.932 852.451 529.935C840.344 529.948 828.236 529.94 815.882 529.94Z" fill="black"/>
    <path d="M244.476 473.082C254.523 473.082 264.323 473.082 274.122 473.082C274.781 473.082 275.445 473.036 276.097 473.105C277.307 473.232 278.11 473.856 278.115 475.157C278.131 480.18 278.155 485.204 278.099 490.226C278.085 491.55 277.417 492.12 276.091 492.249C275.438 492.312 274.775 492.265 274.116 492.265C260.94 492.265 247.764 492.265 234.588 492.265C233.775 492.265 232.963 492.265 231.988 492.265C231.988 498.451 231.988 504.481 231.988 510.81C232.93 510.81 233.808 510.81 234.686 510.81C248.933 510.81 263.18 510.81 277.426 510.81C278.003 510.81 278.58 510.792 279.155 510.816C281.376 510.907 281.957 511.441 281.972 513.618C282.005 518.147 282.008 522.677 281.971 527.205C281.953 529.402 281.405 529.924 279.132 529.926C260.768 529.938 242.403 529.992 224.04 529.899C215.984 529.859 210.429 524.132 210.42 516.082C210.39 490.966 210.406 465.849 210.411 440.732C210.412 437.842 210.813 437.435 213.683 437.434C235.341 437.428 256.999 437.428 278.657 437.434C281.522 437.435 281.97 437.88 281.979 440.705C281.994 444.904 281.994 449.104 281.979 453.304C281.97 456.103 281.472 456.608 278.673 456.61C264.014 456.618 249.356 456.614 234.698 456.614C233.809 456.614 232.921 456.614 231.929 456.614C231.929 462.159 231.929 467.481 231.929 473.082C236.036 473.082 240.132 473.082 244.476 473.082Z" fill="black"/>
    <path d="M982.718 523.802C981.569 525.384 980.446 526.774 979.482 528.252C978.695 529.459 977.657 529.851 976.173 529.839C969.675 529.787 963.177 529.818 956.679 529.816C955.62 529.815 954.526 529.936 953.855 528.873C953.113 527.7 953.844 526.823 954.494 525.941C960.815 517.372 967.148 508.81 973.473 500.243C977.539 494.737 981.598 489.226 985.657 483.715C985.904 483.381 986.12 483.028 986.399 482.61C982.468 477.268 978.571 471.967 974.668 466.67C968.554 458.369 962.435 450.071 956.318 441.772C956.218 441.636 956.116 441.5 956.019 441.362C955.348 440.407 954.412 439.502 955.213 438.232C955.926 437.1 957.132 437.228 958.292 437.229C962.654 437.235 967.015 437.231 971.377 437.231C973.246 437.231 975.125 437.34 976.982 437.201C978.909 437.058 980.082 437.762 981.138 439.225C986.72 446.964 992.397 454.644 998.046 462.342C998.581 463.07 999.152 463.775 999.841 464.664C1000.5 463.833 1001.03 463.205 1001.51 462.546C1007.11 454.915 1012.76 447.316 1018.24 439.618C1019.53 437.814 1020.93 437.126 1023.25 437.183C1029.12 437.328 1035 437.231 1040.88 437.233C1041.5 437.233 1042.14 437.179 1042.74 437.277C1044.38 437.542 1045.08 438.835 1044.32 440.222C1043.96 440.879 1043.46 441.471 1043.01 442.083C1033.08 455.553 1023.16 469.022 1013.12 482.638C1015.15 485.404 1017.18 488.189 1019.23 490.964C1027.76 502.523 1036.3 514.079 1044.83 525.639C1045.18 526.112 1045.58 526.582 1045.79 527.109C1046.35 528.475 1045.61 529.576 1044.04 529.784C1043.52 529.854 1042.97 529.816 1042.44 529.816C1036.3 529.817 1030.15 529.744 1024.01 529.858C1021.99 529.896 1020.78 529.285 1019.66 527.719C1013.56 519.21 1007.34 510.776 1001.16 502.318C1000.81 501.842 1000.45 501.377 999.869 500.611C993.976 508.29 988.511 516.045 982.718 523.802Z" fill="black"/>
    <path d="M651.045 471.77C658.004 489.638 664.878 507.334 671.754 525.03C671.992 525.643 672.28 526.24 672.476 526.865C673.108 528.883 672.441 529.873 670.358 529.947C668.878 530 667.394 529.959 665.912 529.959C661.795 529.959 657.678 529.971 653.561 529.954C651.294 529.944 651.15 529.847 650.34 527.695C648.084 521.7 645.851 515.697 643.553 509.547C633.448 509.547 623.36 509.547 613.101 509.547C612.85 510.123 612.533 510.775 612.276 511.451C610.231 516.827 608.207 522.211 606.158 527.586C605.298 529.842 605.142 529.949 602.745 529.955C597.393 529.968 592.041 529.959 586.689 529.959C586.442 529.958 586.194 529.971 585.948 529.953C584.019 529.812 583.289 528.814 583.948 527.005C584.988 524.148 586.121 521.324 587.229 518.493C597.359 492.626 607.491 466.76 617.623 440.894C617.893 440.206 618.039 439.415 618.48 438.861C618.944 438.279 619.686 437.548 620.322 437.533C623.774 437.449 627.262 437.293 630.679 437.68C635.68 438.246 639.076 441.21 640.937 445.866C642.645 450.139 644.276 454.443 645.945 458.732C647.614 463.022 649.288 467.309 651.045 471.77ZM632.721 490.768C634.149 490.768 635.578 490.768 637.356 490.768C634.304 482.51 631.404 474.664 628.325 466.331C625.19 474.768 622.26 482.652 619.313 490.584C619.83 490.692 619.99 490.754 620.151 490.754C624.178 490.763 628.205 490.765 632.721 490.768Z" fill="black"/>
</svg>